<?xml version="1.0" standalone="no"?><!DOCTYPE svg PUBLIC "-//W3C//DTD SVG 1.1//EN" "http://www.w3.org/Graphics/SVG/1.1/DTD/svg11.dtd"><svg t="1668588266056" class="icon" viewBox="0 0 1024 1024" version="1.1" xmlns="http://www.w3.org/2000/svg" p-id="4871" data-spm-anchor-id="a313x.7781069.0.i44" xmlns:xlink="http://www.w3.org/1999/xlink" width="200" height="200"><path d="M236.7 364.2l277.6-94.4 275 94.1-277.6 94.4z" fill="#d08bfb" p-id="4872" data-spm-anchor-id="a313x.7781069.0.i43" class="selected"></path><path d="M935.8 329.4L526.2 189.3c-7.6-2.6-16-2.6-23.6 0L90.3 329.5c-15 5.1-24.7 18.7-24.8 34.6 0 15.9 9.7 29.5 24.7 34.6l94.3 32.3v304.2c0 41.7 41 70.1 75.3 86.5 61.8 29.6 154.1 46.6 253.2 46.6s191.4-17 253.2-46.6c62.3-29.8 75.3-63.5 75.3-86.5V430.6l94.2-32c15-5.1 24.7-18.7 24.8-34.6 0-15.9-9.7-29.5-24.7-34.6zM809.5 735.1c0 19.3-20.8 40.3-57.1 57.7-57.6 27.6-144.8 43.4-239.3 43.4s-181.7-15.8-239.3-43.4c-36.8-17.7-57.1-38.1-57.1-57.7V441.9L500 538.8c0.5 0.2 1 0.3 1.4 0.5 0.4 0.1 0.9 0.3 1.4 0.4h0.1c1.4 0.4 2.9 0.6 4.4 0.8 0.5 0.1 1 0.1 1.5 0.2 0.5 0 1 0.1 1.5 0.1h1.5c2.5 0 4.9-0.2 7.4-0.7 0.5-0.1 1-0.2 1.4-0.3 0.4-0.1 0.9-0.2 1.3-0.4h0.1c0.5-0.1 1-0.3 1.4-0.5l286.1-97.3v293.5z m115.9-366.8L820.3 404 513.1 508.5c-0.9 0.3-2 0.3-2.9 0L205.7 404.3l-105.1-36c-2-0.7-3.1-2.1-3.1-4.3s1-3.6 3.1-4.3l412.3-140.2c0.5-0.2 1-0.2 1.4-0.2 0.5 0 1 0.1 1.5 0.2l409.6 140.1c2 0.7 3.1 2.1 3.1 4.3 0 2.2-1.1 3.7-3.1 4.4z" fill="#434777" p-id="4873"></path><path d="M895.9 760.6c8.8 0 16-7.2 16-16V452c0-8.8-7.2-16-16-16s-16 7.2-16 16v292.6c0 8.9 7.2 16 16 16zM895.9 779c-20.5 0-37.2 53.8-37.2 74.4 0 20.5 16.6 37.2 37.2 37.2 20.5 0 37.2-16.7 37.2-37.2 0-20.5-16.6-74.4-37.2-74.4z" fill="#434777" p-id="4874"></path></svg>