<?xml version="1.0" standalone="no"?><!DOCTYPE svg PUBLIC "-//W3C//DTD SVG 1.1//EN" "http://www.w3.org/Graphics/SVG/1.1/DTD/svg11.dtd"><svg t="1668587737774" class="icon" viewBox="0 0 1024 1024" version="1.1" xmlns="http://www.w3.org/2000/svg" p-id="3853" data-spm-anchor-id="a313x.7781069.0.i34" xmlns:xlink="http://www.w3.org/1999/xlink" width="200" height="200"><path d="M441.972 439.643c-16.358 1.006-24.885 17.992-25.585 50.975 0.7 35 8.877 52.992 24.518 53.975 16.341 0 24.52-17.992 24.52-53.975-0.719-33.967-8.53-50.975-23.453-50.975z" fill="#efe771" p-id="3854" data-spm-anchor-id="a313x.7781069.0.i37" class="selected"></path><path d="M742.034 587.683c17.961-41.332 27.067-85.338 27.067-130.798 0-20.007-1.804-39.6-5.247-58.629C727.13 268.531 607.846 173.487 466.36 173.487c-170.742 0-309.156 138.414-309.156 309.156 0 141.484 95.043 260.768 224.766 297.494a329.13 329.13 0 0 0 58.632 5.247c84.941 0 160.297-28.803 217.961-82.269 0.175-0.185 0.346-0.372 0.526-0.552l16.383-16.384c9.899-10.704 19.179-22.22 27.785-34.528 4.748-6.793 35.566-56.579 38.777-63.968zM331.107 486.12c0 73.982-25.585 110.949-76.754 110.949-56.864-1.008-82.798-22.881-77.818-104.85H234.1c-2.325 28.062 4.265 41.387 17.056 40.381 10.66-0.985 15.991-12.487 15.991-34.484V316.7h63.96v169.42z m109.797 109.449c-52.6-2.015-79.599-35.982-81.015-101.951 2.131-68.969 29.13-104.951 81.015-107.951 51.869 3 79.235 37.998 82.082 104.951-1.431 67.984-28.782 102.937-82.082 104.951z m199.341-3.918c-22.036 0-44.771 0.92-44.771 0.92h-51.169V316.7h57.565v82.7c10.66-17.99 24.152-14.716 40.506-13.732 39.075 5.015 60.048 39.99 62.895 104.951-0.716 68.968-22.385 100.025-65.026 101.032z" fill="#efe771" p-id="3855" data-spm-anchor-id="a313x.7781069.0.i35" class="selected"></path><path d="M624.254 447.139c-14.923 1.008-23.1 16-24.516 44.979 0.698 30.994 8.877 46.994 24.516 47.977 14.927 0 22.737-15.485 23.452-46.477-0.715-29.987-8.525-45.471-23.452-46.479zM716.402 729.793l148.9 148.9 24.223-24.223-157.212-157.211-15.911 15.911c-4.59 4.59-4.59 12.033 0 16.623zM925.454 822.479L774.585 671.61c-4.591-4.591-12.033-4.591-16.624 0l-4.435 4.435 159.507 159.507a26.595 26.595 0 0 1 6.212 9.759l6.209-6.209c4.591-4.59 4.591-12.032 0-16.623z" fill="#efe771" p-id="3856" data-spm-anchor-id="a313x.7781069.0.i33" class="selected"></path><path d="M781.227 686.132l-15.982-15.982a28.389 28.389 0 0 0-9.397-6.247 15.833 15.833 0 0 0-5.562-7.406c-0.094-0.069-0.179-0.147-0.276-0.214-7.211-5.044-17.149-3.287-22.193 3.929-9.143 13.077-19.003 25.312-29.52 36.685l-17.407 17.407c-0.192 0.192-0.374 0.391-0.559 0.587-61.267 56.806-141.33 87.408-231.577 87.408a349.684 349.684 0 0 1-62.295-5.575C223.627 767.267 99.733 624.473 99.733 453.28c0-192.451 156.57-349.021 349.021-349.021 171.194 0 313.989 123.895 343.446 286.729a349.66 349.66 0 0 1 5.574 62.292c0 48.299-9.675 95.055-28.758 138.969-3.411 7.851 0.006 16.927 7.62 20.649 0.216 0.105 0.422 0.223 0.645 0.32 8.072 3.509 17.461-0.192 20.968-8.264 20.835-47.947 31.4-98.977 31.4-151.673 0-51.414-10.073-101.297-29.939-148.267-19.186-45.358-46.647-86.091-81.622-121.067-34.975-34.975-75.708-62.437-121.067-81.623-46.97-19.866-96.854-29.939-148.267-29.939-51.414 0-101.297 10.073-148.267 29.939-45.358 19.185-86.091 46.647-121.067 81.623-34.975 34.976-62.437 75.709-81.622 121.067-19.866 46.969-29.939 96.853-29.939 148.267 0 51.413 10.073 101.297 29.939 148.267 19.185 45.358 46.647 86.091 81.622 121.067 34.976 34.975 75.709 62.437 121.067 81.622 46.969 19.866 96.853 29.939 148.267 29.939 89.081 0 169.141-27.377 233.225-78.579l184.362 184.362c5.368 5.37 12.507 8.328 20.101 8.328s14.732-2.957 20.1-8.327l44.156-44.155c8.053-8.053 10.248-19.773 6.6-29.832a28.245 28.245 0 0 0-6.6-10.369L781.227 686.132z m-75.215 48.42a364.057 364.057 0 0 0 15.708-15.999l23.426-23.426 13.543 13.543 167.033 167.033-25.736 25.736-13.543 13.543-180.431-180.43z" fill="#d08bfb" p-id="3857" data-spm-anchor-id="a313x.7781069.0.i32" class=""></path><path d="M267.147 498.116c0 21.996-5.33 33.498-15.991 34.484-12.792 1.006-19.381-12.319-17.056-40.381h-57.565c-4.98 81.969 20.953 103.842 77.818 104.85 51.169 0 76.754-36.967 76.754-110.949V316.7h-63.96v181.416zM440.904 385.668c-51.884 3-78.883 38.982-81.015 107.951 1.416 65.969 28.415 99.936 81.015 101.951 53.3-2.015 80.651-36.967 82.082-104.951-2.846-66.953-30.213-101.952-82.082-104.951z m0 158.926c-15.64-0.983-23.817-18.975-24.518-53.975 0.7-32.984 9.227-49.969 25.585-50.975 14.923 0 22.735 17.008 23.452 50.975 0.001 35.983-8.178 53.975-24.519 53.975zM642.376 385.668c-16.354-0.983-29.846-4.258-40.506 13.732v-82.7h-57.565v275.871h51.169s22.735-0.92 44.771-0.92c42.642-1.006 64.31-32.063 65.026-101.032-2.847-64.962-23.82-99.937-62.895-104.951z m-18.122 154.428c-15.639-0.983-23.818-16.984-24.516-47.977 1.416-28.979 9.593-43.971 24.516-44.979 14.927 1.008 22.737 16.492 23.452 46.479-0.715 30.991-8.525 46.477-23.452 46.477z" fill="#d08bfb" p-id="3858" data-spm-anchor-id="a313x.7781069.0.i30" class=""></path></svg>